<svg width="20" height="21" viewBox="0 0 20 21" fill="none" xmlns="http://www.w3.org/2000/svg">
<path d="M15.34 3.94547C15.1027 3.94547 14.8707 4.01585 14.6733 4.14771C14.476 4.27957 14.3222 4.46698 14.2313 4.68625C14.1405 4.90552 14.1168 5.1468 14.1631 5.37958C14.2094 5.61236 14.3236 5.82618 14.4915 5.994C14.6593 6.16182 14.8731 6.27611 15.1059 6.32242C15.3387 6.36872 15.5799 6.34495 15.7992 6.25413C16.0185 6.1633 16.2059 6.0095 16.3378 5.81216C16.4696 5.61482 16.54 5.38281 16.54 5.14547C16.54 4.82721 16.4136 4.52199 16.1885 4.29695C15.9635 4.0719 15.6583 3.94547 15.34 3.94547ZM19.94 6.36547C19.9206 5.53577 19.7652 4.71488 19.48 3.93547C19.2257 3.26861 18.83 2.66475 18.32 2.16547C17.8248 1.6529 17.2196 1.25965 16.55 1.01547C15.7727 0.721634 14.9508 0.562684 14.12 0.545474C13.06 0.485474 12.72 0.485474 10 0.485474C7.28 0.485474 6.94 0.485474 5.88 0.545474C5.04915 0.562684 4.22734 0.721634 3.45 1.01547C2.78168 1.26212 2.17693 1.65503 1.68 2.16547C1.16743 2.66065 0.774176 3.26591 0.53 3.93547C0.236161 4.71282 0.07721 5.53463 0.0599999 6.36547C-5.58794e-08 7.42547 0 7.76547 0 10.4855C0 13.2055 -5.58794e-08 13.5455 0.0599999 14.6055C0.07721 15.4363 0.236161 16.2581 0.53 17.0355C0.774176 17.705 1.16743 18.3103 1.68 18.8055C2.17693 19.3159 2.78168 19.7088 3.45 19.9555C4.22734 20.2493 5.04915 20.4083 5.88 20.4255C6.94 20.4855 7.28 20.4855 10 20.4855C12.72 20.4855 13.06 20.4855 14.12 20.4255C14.9508 20.4083 15.7727 20.2493 16.55 19.9555C17.2196 19.7113 17.8248 19.318 18.32 18.8055C18.8322 18.3081 19.2283 17.7037 19.48 17.0355C19.7652 16.2561 19.9206 15.4352 19.94 14.6055C19.94 13.5455 20 13.2055 20 10.4855C20 7.76547 20 7.42547 19.94 6.36547ZM18.14 14.4855C18.1327 15.1202 18.0178 15.7492 17.8 16.3455C17.6403 16.7807 17.3839 17.1739 17.05 17.4955C16.7256 17.826 16.3332 18.0819 15.9 18.2455C15.3037 18.4632 14.6748 18.5782 14.04 18.5855C13.04 18.6355 12.67 18.6455 10.04 18.6455C7.41 18.6455 7.04 18.6455 6.04 18.5855C5.38089 18.5978 4.72459 18.4963 4.1 18.2855C3.68578 18.1136 3.31136 17.8583 3 17.5355C2.66809 17.2142 2.41484 16.8207 2.26 16.3855C2.01586 15.7806 1.88044 15.1374 1.86 14.4855C1.86 13.4855 1.8 13.1155 1.8 10.4855C1.8 7.85547 1.8 7.48547 1.86 6.48547C1.86448 5.83653 1.98295 5.19342 2.21 4.58547C2.38605 4.16338 2.65627 3.78713 3 3.48547C3.30381 3.14164 3.67929 2.86857 4.1 2.68547C4.70955 2.46552 5.352 2.35055 6 2.34547C7 2.34547 7.37 2.28547 10 2.28547C12.63 2.28547 13 2.28547 14 2.34547C14.6348 2.35275 15.2637 2.46772 15.86 2.68547C16.3144 2.85413 16.7223 3.12832 17.05 3.48547C17.3777 3.79265 17.6338 4.16821 17.8 4.58547C18.0223 5.19441 18.1373 5.83725 18.14 6.48547C18.19 7.48547 18.2 7.85547 18.2 10.4855C18.2 13.1155 18.19 13.4855 18.14 14.4855ZM10 5.35547C8.98581 5.35745 7.99496 5.66 7.15265 6.22489C6.31035 6.78978 5.65438 7.59167 5.26763 8.52923C4.88089 9.46678 4.78072 10.4979 4.97979 11.4924C5.17886 12.4869 5.66824 13.4 6.38608 14.1165C7.10392 14.8329 8.01801 15.3205 9.01286 15.5176C10.0077 15.7148 11.0387 15.6126 11.9755 15.224C12.9123 14.8354 13.7129 14.1779 14.2761 13.3345C14.8394 12.4911 15.14 11.4997 15.14 10.4855C15.1413 9.81058 15.0092 9.14208 14.7512 8.51843C14.4933 7.89478 14.1146 7.32828 13.6369 6.85152C13.1592 6.37477 12.5919 5.99715 11.9678 5.7404C11.3436 5.48365 10.6749 5.35284 10 5.35547ZM10 13.8155C9.34139 13.8155 8.69757 13.6202 8.14995 13.2543C7.60234 12.8884 7.17552 12.3683 6.92348 11.7598C6.67144 11.1513 6.6055 10.4818 6.73398 9.83582C6.86247 9.18987 7.17963 8.59652 7.64533 8.13081C8.11104 7.6651 8.70439 7.34795 9.35035 7.21946C9.99631 7.09097 10.6659 7.15691 11.2743 7.40895C11.8828 7.66099 12.4029 8.08781 12.7688 8.63542C13.1347 9.18304 13.33 9.82686 13.33 10.4855C13.33 10.9228 13.2439 11.3558 13.0765 11.7598C12.9092 12.1638 12.6639 12.5309 12.3547 12.8401C12.0454 13.1494 11.6784 13.3946 11.2743 13.562C10.8703 13.7293 10.4373 13.8155 10 13.8155Z" fill="#F5EFDB"/>
</svg>
