<svg width="23" height="19" viewBox="0 0 23 19" fill="none" xmlns="http://www.w3.org/2000/svg">
<path d="M22.9912 1.43568C22.9913 1.25905 22.9446 1.08554 22.8559 0.932824C22.7671 0.78011 22.6395 0.653646 22.486 0.566311C22.3324 0.478976 22.1585 0.433889 21.9819 0.435644C21.8052 0.437399 21.6322 0.485931 21.4805 0.5763C20.8952 0.924685 20.265 1.19148 19.6075 1.3693C18.6684 0.563532 17.4708 0.122603 16.2335 0.127109C14.876 0.128672 13.5724 0.657702 12.5977 1.60249C11.623 2.54728 11.0537 3.83387 11.0098 5.19059C8.33382 4.76385 5.90847 3.36712 4.19629 1.26673C4.09313 1.14156 3.96138 1.04304 3.81215 0.979476C3.66293 0.915908 3.5006 0.889157 3.33887 0.901479C3.17723 0.914789 3.02127 0.967272 2.88446 1.05439C2.74766 1.14151 2.63414 1.26064 2.55371 1.40148C2.14124 2.12129 1.90434 2.92824 1.86226 3.75679C1.82018 4.58534 1.9741 5.41213 2.31152 6.17003L2.30957 6.17198C2.15792 6.26538 2.03276 6.39614 1.94608 6.55173C1.85939 6.70732 1.81407 6.88255 1.81445 7.06066C1.81261 7.20759 1.82143 7.35446 1.84082 7.50011C1.94296 8.75838 2.5006 9.93617 3.40918 10.8126C3.34754 10.93 3.30993 11.0586 3.29852 11.1907C3.28712 11.3228 3.30216 11.4559 3.34277 11.5821C3.73889 12.8163 4.58127 13.8582 5.70508 14.504C4.56332 14.9455 3.3305 15.0995 2.11523 14.9523C1.8903 14.924 1.66246 14.9731 1.46908 15.0914C1.2757 15.2097 1.12826 15.3902 1.05095 15.6033C0.973634 15.8164 0.971041 16.0494 1.04359 16.2642C1.11614 16.479 1.25953 16.6627 1.45023 16.7853C3.54033 18.1314 5.97391 18.8471 8.46 18.8468C11.2793 18.8785 14.03 17.9776 16.2842 16.2843C18.5385 14.5909 20.17 12.2 20.9248 9.48348C21.2779 8.30012 21.4581 7.07195 21.46 5.83704C21.46 5.77161 21.46 5.70423 21.459 5.63685C21.9811 5.07378 22.3856 4.41215 22.6487 3.69075C22.9118 2.96934 23.0282 2.20267 22.9912 1.43568ZM19.6846 4.64759C19.5194 4.84293 19.4358 5.09439 19.4512 5.34974C19.4609 5.51474 19.46 5.68074 19.46 5.83704C19.4579 6.88058 19.305 7.91834 19.0059 8.9181C18.3894 11.2295 17.015 13.2671 15.1029 14.7047C13.1909 16.1423 10.8517 16.8966 8.46 16.8468C7.60088 16.8471 6.74472 16.7461 5.90922 16.546C6.97463 16.2027 7.97081 15.6733 8.8516 14.9825C9.01383 14.8548 9.13255 14.68 9.19149 14.4821C9.25042 14.2842 9.24668 14.073 9.18078 13.8773C9.11487 13.6816 8.99003 13.5111 8.82338 13.3892C8.65673 13.2673 8.45645 13.2 8.25 13.1964C7.41883 13.1835 6.62513 12.8484 6.03613 12.2618C6.18555 12.2335 6.33399 12.1984 6.48145 12.1564C6.69746 12.0949 6.88649 11.9625 7.01811 11.7805C7.14973 11.5985 7.21627 11.3776 7.20702 11.1532C7.19778 10.9288 7.11328 10.714 6.96714 10.5435C6.82099 10.3729 6.62171 10.2565 6.40137 10.213C5.91891 10.1177 5.46492 9.91248 5.07469 9.6132C4.68445 9.31392 4.3685 8.92868 4.15137 8.48743C4.3321 8.5121 4.51398 8.52742 4.69629 8.53333C4.91287 8.5366 5.12489 8.4709 5.30167 8.34573C5.47845 8.22056 5.61084 8.04241 5.67969 7.83704C5.74567 7.6298 5.74227 7.4067 5.67002 7.20157C5.59777 6.99644 5.46059 6.82046 5.2793 6.70032C4.83945 6.40729 4.47914 6.00974 4.23066 5.54328C3.98217 5.07681 3.85326 4.556 3.85547 4.02748C3.85547 3.96108 3.85742 3.89467 3.86133 3.82924C6.10259 5.91949 9.00965 7.15169 12.0703 7.30873C12.2248 7.31482 12.3787 7.28572 12.5203 7.22363C12.6619 7.16154 12.7875 7.06809 12.8877 6.95033C12.9869 6.83143 13.0571 6.69114 13.0929 6.54049C13.1286 6.38984 13.1289 6.23295 13.0937 6.08217C13.0365 5.84353 13.0074 5.59904 13.0068 5.35365C13.0077 4.49818 13.348 3.67802 13.9529 3.07312C14.5578 2.46821 15.3779 2.12798 16.2334 2.12708C16.6735 2.1259 17.1091 2.21598 17.5127 2.39163C17.9163 2.56727 18.279 2.82468 18.5781 3.14759C18.6935 3.27167 18.8386 3.36418 18.9998 3.41632C19.161 3.46847 19.3328 3.4785 19.499 3.44548C19.9098 3.36554 20.3147 3.25787 20.7109 3.12322C20.4407 3.67619 20.0953 4.18917 19.6846 4.64759Z" fill="#F5EFDB"/>
</svg>
